# Wavefront OBJ file automatically generated by Tiled2Unity

# Vertices (Count = 336)
v 0 -32 0
v -32 -32 0
v -32 0 0
v 0 0 0
v -64 -32 0
v -64 0 0
v -96 -32 0
v -96 0 0
v -128 -32 0
v -128 0 0
v -160 -32 0
v -160 0 0
v -192 -32 0
v -192 0 0
v -224 -32 0
v -224 0 0
v -256 -32 0
v -256 0 0
v -288 -32 0
v -288 0 0
v -320 -32 0
v -320 0 0
v -352 -32 0
v -352 0 0
v -384 -32 0
v -384 0 0
v -416 -32 0
v -416 0 0
v -448 -32 0
v -448 0 0
v -480 -32 0
v -480 0 0
v 0 -64 0
v -32 -64 0
v -64 -64 0
v -96 -64 0
v -128 -64 0
v -160 -64 0
v -192 -64 0
v -224 -64 0
v -256 -64 0
v -288 -64 0
v -320 -64 0
v -352 -64 0
v -384 -64 0
v -416 -64 0
v -448 -64 0
v -480 -64 0
v 0 -96 0
v -32 -96 0
v -64 -96 0
v -416 -96 0
v -448 -96 0
v -480 -96 0
v 0 -128 0
v -32 -128 0
v -64 -128 0
v -416 -128 0
v -448 -128 0
v -480 -128 0
v 0 -160 0
v -32 -160 0
v -64 -160 0
v -416 -160 0
v -448 -160 0
v -480 -160 0
v 0 -192 0
v -32 -192 0
v -64 -192 0
v -416 -192 0
v -448 -192 0
v -480 -192 0
v 0 -224 0
v -32 -224 0
v -64 -224 0
v -416 -224 0
v -448 -224 0
v -480 -224 0
v 0 -256 0
v -32 -256 0
v -64 -256 0
v -416 -256 0
v -448 -256 0
v -480 -256 0
v 0 -288 0
v -32 -288 0
v -64 -288 0
v -416 -288 0
v -448 -288 0
v -480 -288 0
v 0 -320 0
v -32 -320 0
v -64 -320 0
v -416 -320 0
v -448 -320 0
v -480 -320 0
v 0 -352 0
v -32 -352 0
v -64 -352 0
v -416 -352 0
v -448 -352 0
v -480 -352 0
v 0 -384 0
v -32 -384 0
v -64 -384 0
v -416 -384 0
v -448 -384 0
v -480 -384 0
v 0 -416 0
v -32 -416 0
v -64 -416 0
v -416 -416 0
v -448 -416 0
v -480 -416 0
v 0 -448 0
v -32 -448 0
v -64 -448 0
v -416 -448 0
v -448 -448 0
v -480 -448 0
v 0 -480 0
v -32 -480 0
v -64 -480 0
v -416 -480 0
v -448 -480 0
v -480 -480 0
v 0 -512 0
v -32 -512 0
v -64 -512 0
v -416 -512 0
v -448 -512 0
v -480 -512 0
v 0 -544 0
v -32 -544 0
v -64 -544 0
v -416 -544 0
v -448 -544 0
v -480 -544 0
v 0 -576 0
v -32 -576 0
v -64 -576 0
v -96 -576 0
v -96 -544 0
v -128 -576 0
v -128 -544 0
v -160 -576 0
v -160 -544 0
v -192 -576 0
v -192 -544 0
v -224 -576 0
v -224 -544 0
v -256 -576 0
v -256 -544 0
v -288 -576 0
v -288 -544 0
v -320 -576 0
v -320 -544 0
v -352 -576 0
v -352 -544 0
v -384 -576 0
v -384 -544 0
v -416 -576 0
v -448 -576 0
v -480 -576 0
v 0 -608 0
v -32 -608 0
v -64 -608 0
v -96 -608 0
v -128 -608 0
v -160 -608 0
v -192 -608 0
v -224 -608 0
v -256 -608 0
v -288 -608 0
v -320 -608 0
v -352 -608 0
v -384 -608 0
v -416 -608 0
v -448 -608 0
v -480 -608 0
v 0 -640 0
v -32 -640 0
v -64 -640 0
v -96 -640 0
v -128 -640 0
v -160 -640 0
v -192 -640 0
v -224 -640 0
v -256 -640 0
v -288 -640 0
v -320 -640 0
v -352 -640 0
v -384 -640 0
v -416 -640 0
v -448 -640 0
v -480 -640 0
v -96 -96 0
v -128 -96 0
v -160 -96 0
v -192 -96 0
v -224 -96 0
v -256 -96 0
v -288 -96 0
v -320 -96 0
v -352 -96 0
v -384 -96 0
v -96 -128 0
v -128 -128 0
v -160 -128 0
v -192 -128 0
v -224 -128 0
v -256 -128 0
v -288 -128 0
v -320 -128 0
v -352 -128 0
v -384 -128 0
v -96 -160 0
v -128 -160 0
v -160 -160 0
v -192 -160 0
v -224 -160 0
v -256 -160 0
v -288 -160 0
v -320 -160 0
v -352 -160 0
v -384 -160 0
v -96 -192 0
v -128 -192 0
v -160 -192 0
v -192 -192 0
v -224 -192 0
v -256 -192 0
v -288 -192 0
v -320 -192 0
v -352 -192 0
v -384 -192 0
v -96 -224 0
v -128 -224 0
v -160 -224 0
v -192 -224 0
v -224 -224 0
v -256 -224 0
v -288 -224 0
v -320 -224 0
v -352 -224 0
v -384 -224 0
v -96 -256 0
v -128 -256 0
v -160 -256 0
v -192 -256 0
v -224 -256 0
v -256 -256 0
v -288 -256 0
v -320 -256 0
v -352 -256 0
v -384 -256 0
v -96 -288 0
v -128 -288 0
v -160 -288 0
v -192 -288 0
v -224 -288 0
v -256 -288 0
v -288 -288 0
v -320 -288 0
v -352 -288 0
v -384 -288 0
v -96 -320 0
v -128 -320 0
v -160 -320 0
v -192 -320 0
v -224 -320 0
v -256 -320 0
v -288 -320 0
v -320 -320 0
v -352 -320 0
v -384 -320 0
v -96 -352 0
v -128 -352 0
v -160 -352 0
v -192 -352 0
v -224 -352 0
v -256 -352 0
v -288 -352 0
v -320 -352 0
v -352 -352 0
v -384 -352 0
v -96 -384 0
v -128 -384 0
v -160 -384 0
v -192 -384 0
v -224 -384 0
v -256 -384 0
v -288 -384 0
v -320 -384 0
v -352 -384 0
v -384 -384 0
v -96 -416 0
v -128 -416 0
v -160 -416 0
v -192 -416 0
v -224 -416 0
v -256 -416 0
v -288 -416 0
v -320 -416 0
v -352 -416 0
v -384 -416 0
v -96 -448 0
v -128 -448 0
v -160 -448 0
v -192 -448 0
v -224 -448 0
v -256 -448 0
v -288 -448 0
v -320 -448 0
v -352 -448 0
v -384 -448 0
v -96 -480 0
v -128 -480 0
v -160 -480 0
v -192 -480 0
v -224 -480 0
v -256 -480 0
v -288 -480 0
v -320 -480 0
v -352 -480 0
v -384 -480 0
v -96 -512 0
v -128 -512 0
v -160 -512 0
v -192 -512 0
v -224 -512 0
v -256 -512 0
v -288 -512 0
v -320 -512 0
v -352 -512 0
v -384 -512 0

# Texture cooridinates (Count = 88)
vt 0.9375076 0.3125076
vt 0.9999924 0.3125076
vt 0.9999924 0.3749924
vt 0.9375076 0.3749924
vt 0.06250763 0.9166768
vt 0.1249924 0.9166768
vt 0.1249924 0.9999898
vt 0.06250763 0.9999898
vt 0.1250076 0.9166768
vt 0.1874924 0.9166768
vt 0.1874924 0.9999898
vt 0.1250076 0.9999898
vt 0.1875076 0.9166768
vt 0.2499924 0.9166768
vt 0.2499924 0.9999898
vt 0.1875076 0.9999898
vt 0.1875076 0.8333435
vt 0.2499924 0.8333435
vt 0.2499924 0.9166565
vt 0.1875076 0.9166565
vt 0.1875076 0.7500102
vt 0.2499924 0.7500102
vt 0.2499924 0.8333232
vt 0.1875076 0.8333232
vt 0.1250076 0.8333435
vt 0.1874924 0.8333435
vt 0.1874924 0.9166565
vt 0.1250076 0.9166565
vt 0.1250076 0.7500102
vt 0.1874924 0.7500102
vt 0.1874924 0.8333232
vt 0.1250076 0.8333232
vt 0.1875076 0.9375076
vt 0.2499924 0.9375076
vt 0.2499924 0.9999924
vt 0.1875076 0.9999924
vt 0.1875076 0.8750076
vt 0.2499924 0.8750076
vt 0.2499924 0.9374924
vt 0.1875076 0.9374924
vt 0.6875076 0.5625076
vt 0.7499924 0.5625076
vt 0.7499924 0.6249924
vt 0.6875076 0.6249924
vt 0.6875076 0.5000076
vt 0.7499924 0.5000076
vt 0.7499924 0.5624924
vt 0.6875076 0.5624924
vt 0.6875076 0.4375076
vt 0.7499924 0.4375076
vt 0.7499924 0.4999924
vt 0.6875076 0.4999924
vt 0.1875076 0.4375076
vt 0.2499924 0.4375076
vt 0.2499924 0.4999924
vt 0.1875076 0.4999924
vt 0.3750076 0.06250763
vt 0.4374924 0.06250763
vt 0.4374924 0.1249924
vt 0.3750076 0.1249924
vt 0.5625076 0.1875076
vt 0.6249924 0.1875076
vt 0.6249924 0.2499924
vt 0.5625076 0.2499924
vt 0.3750076 7.629395E-06
vt 0.4374924 7.629395E-06
vt 0.4374924 0.06249237
vt 0.3750076 0.06249237
vt 0.2500076 0.06250763
vt 0.3124924 0.06250763
vt 0.3124924 0.1249924
vt 0.2500076 0.1249924
vt 0.3125076 0.06250763
vt 0.3749924 0.06250763
vt 0.3749924 0.1249924
vt 0.3125076 0.1249924
vt 0.2500076 7.629395E-06
vt 0.3124924 7.629395E-06
vt 0.3124924 0.06249237
vt 0.2500076 0.06249237
vt 0.3125076 7.629395E-06
vt 0.3749924 7.629395E-06
vt 0.3749924 0.06249237
vt 0.3125076 0.06249237
vt 0.8750076 0.3749924
vt 0.8750076 0.3125076
vt 0.9374924 0.3125076
vt 0.9374924 0.3749924

# Normal
vn 0 0 -1

# Groups (Count = 4)

g mesh_0001
f 1/1/1 2/2/1 3/3/1 4/4/1
f 2/1/1 5/2/1 6/3/1 3/4/1
f 5/1/1 7/2/1 8/3/1 6/4/1
f 7/1/1 9/2/1 10/3/1 8/4/1
f 9/1/1 11/2/1 12/3/1 10/4/1
f 11/1/1 13/2/1 14/3/1 12/4/1
f 13/1/1 15/2/1 16/3/1 14/4/1
f 15/1/1 17/2/1 18/3/1 16/4/1
f 17/1/1 19/2/1 20/3/1 18/4/1
f 19/1/1 21/2/1 22/3/1 20/4/1
f 21/1/1 23/2/1 24/3/1 22/4/1
f 23/1/1 25/2/1 26/3/1 24/4/1
f 25/1/1 27/2/1 28/3/1 26/4/1
f 27/1/1 29/2/1 30/3/1 28/4/1
f 29/1/1 31/2/1 32/3/1 30/4/1
f 33/1/1 34/2/1 2/3/1 1/4/1
f 34/1/1 35/2/1 5/3/1 2/4/1
f 35/1/1 36/2/1 7/3/1 5/4/1
f 36/1/1 37/2/1 9/3/1 7/4/1
f 37/1/1 38/2/1 11/3/1 9/4/1
f 38/1/1 39/2/1 13/3/1 11/4/1
f 39/1/1 40/2/1 15/3/1 13/4/1
f 40/1/1 41/2/1 17/3/1 15/4/1
f 41/1/1 42/2/1 19/3/1 17/4/1
f 42/1/1 43/2/1 21/3/1 19/4/1
f 43/1/1 44/2/1 23/3/1 21/4/1
f 44/1/1 45/2/1 25/3/1 23/4/1
f 45/1/1 46/2/1 27/3/1 25/4/1
f 46/1/1 47/2/1 29/3/1 27/4/1
f 47/1/1 48/2/1 31/3/1 29/4/1
f 49/1/1 50/2/1 34/3/1 33/4/1
f 50/1/1 51/2/1 35/3/1 34/4/1
f 52/1/1 53/2/1 47/3/1 46/4/1
f 53/1/1 54/2/1 48/3/1 47/4/1
f 55/1/1 56/2/1 50/3/1 49/4/1
f 56/1/1 57/2/1 51/3/1 50/4/1
f 58/1/1 59/2/1 53/3/1 52/4/1
f 59/1/1 60/2/1 54/3/1 53/4/1
f 61/1/1 62/2/1 56/3/1 55/4/1
f 62/1/1 63/2/1 57/3/1 56/4/1
f 64/1/1 65/2/1 59/3/1 58/4/1
f 65/1/1 66/2/1 60/3/1 59/4/1
f 67/1/1 68/2/1 62/3/1 61/4/1
f 68/1/1 69/2/1 63/3/1 62/4/1
f 70/1/1 71/2/1 65/3/1 64/4/1
f 71/1/1 72/2/1 66/3/1 65/4/1
f 73/1/1 74/2/1 68/3/1 67/4/1
f 74/1/1 75/2/1 69/3/1 68/4/1
f 76/1/1 77/2/1 71/3/1 70/4/1
f 77/1/1 78/2/1 72/3/1 71/4/1
f 79/1/1 80/2/1 74/3/1 73/4/1
f 80/1/1 81/2/1 75/3/1 74/4/1
f 82/1/1 83/2/1 77/3/1 76/4/1
f 83/1/1 84/2/1 78/3/1 77/4/1
f 85/1/1 86/2/1 80/3/1 79/4/1
f 86/1/1 87/2/1 81/3/1 80/4/1
f 88/1/1 89/2/1 83/3/1 82/4/1
f 89/1/1 90/2/1 84/3/1 83/4/1
f 91/1/1 92/2/1 86/3/1 85/4/1
f 92/1/1 93/2/1 87/3/1 86/4/1
f 94/1/1 95/2/1 89/3/1 88/4/1
f 95/1/1 96/2/1 90/3/1 89/4/1
f 97/1/1 98/2/1 92/3/1 91/4/1
f 98/1/1 99/2/1 93/3/1 92/4/1
f 100/1/1 101/2/1 95/3/1 94/4/1
f 101/1/1 102/2/1 96/3/1 95/4/1
f 103/1/1 104/2/1 98/3/1 97/4/1
f 104/1/1 105/2/1 99/3/1 98/4/1
f 106/1/1 107/2/1 101/3/1 100/4/1
f 107/1/1 108/2/1 102/3/1 101/4/1
f 109/1/1 110/2/1 104/3/1 103/4/1
f 110/1/1 111/2/1 105/3/1 104/4/1
f 112/1/1 113/2/1 107/3/1 106/4/1
f 113/1/1 114/2/1 108/3/1 107/4/1
f 115/1/1 116/2/1 110/3/1 109/4/1
f 116/1/1 117/2/1 111/3/1 110/4/1
f 118/1/1 119/2/1 113/3/1 112/4/1
f 119/1/1 120/2/1 114/3/1 113/4/1
f 121/1/1 122/2/1 116/3/1 115/4/1
f 122/1/1 123/2/1 117/3/1 116/4/1
f 124/1/1 125/2/1 119/3/1 118/4/1
f 125/1/1 126/2/1 120/3/1 119/4/1
f 127/1/1 128/2/1 122/3/1 121/4/1
f 128/1/1 129/2/1 123/3/1 122/4/1
f 130/1/1 131/2/1 125/3/1 124/4/1
f 131/1/1 132/2/1 126/3/1 125/4/1
f 133/1/1 134/2/1 128/3/1 127/4/1
f 134/1/1 135/2/1 129/3/1 128/4/1
f 136/1/1 137/2/1 131/3/1 130/4/1
f 137/1/1 138/2/1 132/3/1 131/4/1
f 139/1/1 140/2/1 134/3/1 133/4/1
f 140/1/1 141/2/1 135/3/1 134/4/1
f 141/1/1 142/2/1 143/3/1 135/4/1
f 142/1/1 144/2/1 145/3/1 143/4/1
f 144/1/1 146/2/1 147/3/1 145/4/1
f 146/1/1 148/2/1 149/3/1 147/4/1
f 148/1/1 150/2/1 151/3/1 149/4/1
f 150/1/1 152/2/1 153/3/1 151/4/1
f 152/1/1 154/2/1 155/3/1 153/4/1
f 154/1/1 156/2/1 157/3/1 155/4/1
f 156/1/1 158/2/1 159/3/1 157/4/1
f 158/1/1 160/2/1 161/3/1 159/4/1
f 160/1/1 162/2/1 136/3/1 161/4/1
f 162/1/1 163/2/1 137/3/1 136/4/1
f 163/1/1 164/2/1 138/3/1 137/4/1
f 165/1/1 166/2/1 140/3/1 139/4/1
f 166/1/1 167/2/1 141/3/1 140/4/1
f 167/1/1 168/2/1 142/3/1 141/4/1
f 168/1/1 169/2/1 144/3/1 142/4/1
f 169/1/1 170/2/1 146/3/1 144/4/1
f 170/1/1 171/2/1 148/3/1 146/4/1
f 171/1/1 172/2/1 150/3/1 148/4/1
f 172/1/1 173/2/1 152/3/1 150/4/1
f 173/1/1 174/2/1 154/3/1 152/4/1
f 174/1/1 175/2/1 156/3/1 154/4/1
f 175/1/1 176/2/1 158/3/1 156/4/1
f 176/1/1 177/2/1 160/3/1 158/4/1
f 177/1/1 178/2/1 162/3/1 160/4/1
f 178/1/1 179/2/1 163/3/1 162/4/1
f 179/1/1 180/2/1 164/3/1 163/4/1
f 181/1/1 182/2/1 166/3/1 165/4/1
f 182/1/1 183/2/1 167/3/1 166/4/1
f 183/1/1 184/2/1 168/3/1 167/4/1
f 184/1/1 185/2/1 169/3/1 168/4/1
f 185/1/1 186/2/1 170/3/1 169/4/1
f 186/1/1 187/2/1 171/3/1 170/4/1
f 187/1/1 188/2/1 172/3/1 171/4/1
f 188/1/1 189/2/1 173/3/1 172/4/1
f 189/1/1 190/2/1 174/3/1 173/4/1
f 190/1/1 191/2/1 175/3/1 174/4/1
f 191/1/1 192/2/1 176/3/1 175/4/1
f 192/1/1 193/2/1 177/3/1 176/4/1
f 193/1/1 194/2/1 178/3/1 177/4/1
f 194/1/1 195/2/1 179/3/1 178/4/1
f 195/1/1 196/2/1 180/3/1 179/4/1

g mesh_0002
f 51/5/1 197/6/1 36/7/1 35/8/1
f 197/5/1 198/6/1 37/7/1 36/8/1
f 198/5/1 199/6/1 38/7/1 37/8/1
f 199/5/1 200/6/1 39/7/1 38/8/1
f 200/5/1 201/6/1 40/7/1 39/8/1
f 201/5/1 202/6/1 41/7/1 40/8/1
f 202/5/1 203/6/1 42/7/1 41/8/1
f 203/5/1 204/6/1 43/7/1 42/8/1
f 204/5/1 205/6/1 44/7/1 43/8/1
f 205/5/1 206/6/1 45/7/1 44/8/1
f 206/5/1 52/6/1 46/7/1 45/8/1
f 57/5/1 207/6/1 197/7/1 51/8/1
f 207/9/1 208/10/1 198/11/1 197/12/1
f 208/13/1 209/14/1 199/15/1 198/16/1
f 209/13/1 210/14/1 200/15/1 199/16/1
f 210/13/1 211/14/1 201/15/1 200/16/1
f 211/13/1 212/14/1 202/15/1 201/16/1
f 212/13/1 213/14/1 203/15/1 202/16/1
f 213/13/1 214/14/1 204/15/1 203/16/1
f 214/13/1 215/14/1 205/15/1 204/16/1
f 215/13/1 216/14/1 206/15/1 205/16/1
f 216/5/1 58/6/1 52/7/1 206/8/1
f 63/5/1 217/6/1 207/7/1 57/8/1
f 217/9/1 218/10/1 208/11/1 207/12/1
f 218/13/1 219/14/1 209/15/1 208/16/1
f 219/17/1 220/18/1 210/19/1 209/20/1
f 220/17/1 221/18/1 211/19/1 210/20/1
f 221/17/1 222/18/1 212/19/1 211/20/1
f 222/17/1 223/18/1 213/19/1 212/20/1
f 223/17/1 224/18/1 214/19/1 213/20/1
f 224/17/1 225/18/1 215/19/1 214/20/1
f 225/17/1 226/18/1 216/19/1 215/20/1
f 226/5/1 64/6/1 58/7/1 216/8/1
f 69/5/1 227/6/1 217/7/1 63/8/1
f 227/9/1 228/10/1 218/11/1 217/12/1
f 228/13/1 229/14/1 219/15/1 218/16/1
f 229/9/1 230/10/1 220/11/1 219/12/1
f 230/9/1 231/10/1 221/11/1 220/12/1
f 231/9/1 232/10/1 222/11/1 221/12/1
f 232/13/1 233/14/1 223/15/1 222/16/1
f 233/21/1 234/22/1 224/23/1 223/24/1
f 234/21/1 235/22/1 225/23/1 224/24/1
f 235/21/1 236/22/1 226/23/1 225/24/1
f 236/5/1 70/6/1 64/7/1 226/8/1
f 75/5/1 237/6/1 227/7/1 69/8/1
f 237/9/1 238/10/1 228/11/1 227/12/1
f 238/13/1 239/14/1 229/15/1 228/16/1
f 239/25/1 240/26/1 230/27/1 229/28/1
f 240/25/1 241/26/1 231/27/1 230/28/1
f 241/9/1 242/10/1 232/11/1 231/12/1
f 242/13/1 243/14/1 233/15/1 232/16/1
f 243/9/1 244/10/1 234/11/1 233/12/1
f 244/9/1 245/10/1 235/11/1 234/12/1
f 245/13/1 246/14/1 236/15/1 235/16/1
f 246/5/1 76/6/1 70/7/1 236/8/1
f 81/5/1 247/6/1 237/7/1 75/8/1
f 247/25/1 248/26/1 238/27/1 237/28/1
f 248/13/1 249/14/1 239/15/1 238/16/1
f 249/29/1 250/30/1 240/31/1 239/32/1
f 250/29/1 251/30/1 241/31/1 240/32/1
f 251/9/1 252/10/1 242/11/1 241/12/1
f 252/9/1 253/10/1 243/11/1 242/12/1
f 253/13/1 254/14/1 244/15/1 243/16/1
f 254/9/1 255/10/1 245/11/1 244/12/1
f 255/13/1 256/14/1 246/15/1 245/16/1
f 256/5/1 82/6/1 76/7/1 246/8/1
f 87/5/1 257/6/1 247/7/1 81/8/1
f 257/29/1 258/30/1 248/31/1 247/32/1
f 258/9/1 259/10/1 249/11/1 248/12/1
f 259/29/1 260/30/1 250/31/1 249/32/1
f 260/21/1 261/22/1 251/23/1 250/24/1
f 261/25/1 262/26/1 252/27/1 251/28/1
f 262/9/1 263/10/1 253/11/1 252/12/1
f 263/13/1 264/14/1 254/15/1 253/16/1
f 264/9/1 265/10/1 255/11/1 254/12/1
f 265/13/1 266/14/1 256/15/1 255/16/1
f 266/5/1 88/6/1 82/7/1 256/8/1
f 93/5/1 267/6/1 257/7/1 87/8/1
f 267/9/1 268/10/1 258/11/1 257/12/1
f 268/25/1 269/26/1 259/27/1 258/28/1
f 269/29/1 270/30/1 260/31/1 259/32/1
f 270/9/1 271/10/1 261/11/1 260/12/1
f 271/13/1 272/14/1 262/15/1 261/16/1
f 272/9/1 273/10/1 263/11/1 262/12/1
f 273/13/1 274/14/1 264/15/1 263/16/1
f 274/9/1 275/10/1 265/11/1 264/12/1
f 275/13/1 276/14/1 266/15/1 265/16/1
f 276/5/1 94/6/1 88/7/1 266/8/1
f 99/5/1 277/6/1 267/7/1 93/8/1
f 277/9/1 278/10/1 268/11/1 267/12/1
f 278/29/1 279/30/1 269/31/1 268/32/1
f 279/29/1 280/30/1 270/31/1 269/32/1
f 280/25/1 281/26/1 271/27/1 270/28/1
f 281/17/1 282/18/1 272/19/1 271/20/1
f 282/13/1 283/14/1 273/15/1 272/16/1
f 283/13/1 284/14/1 274/15/1 273/16/1
f 284/9/1 285/10/1 275/11/1 274/12/1
f 285/13/1 286/14/1 276/15/1 275/16/1
f 286/5/1 100/6/1 94/7/1 276/8/1
f 105/5/1 287/6/1 277/7/1 99/8/1
f 287/9/1 288/10/1 278/11/1 277/12/1
f 288/29/1 289/30/1 279/31/1 278/32/1
f 289/21/1 290/22/1 280/23/1 279/24/1
f 290/29/1 291/30/1 281/31/1 280/32/1
f 291/21/1 292/22/1 282/23/1 281/24/1
f 292/17/1 293/18/1 283/19/1 282/20/1
f 293/17/1 294/18/1 284/19/1 283/20/1
f 294/9/1 295/10/1 285/11/1 284/12/1
f 295/13/1 296/14/1 286/15/1 285/16/1
f 296/5/1 106/6/1 100/7/1 286/8/1
f 111/5/1 297/6/1 287/7/1 105/8/1
f 297/9/1 298/10/1 288/11/1 287/12/1
f 298/29/1 299/30/1 289/31/1 288/32/1
f 299/21/1 300/22/1 290/23/1 289/24/1
f 300/29/1 301/30/1 291/31/1 290/32/1
f 301/21/1 302/22/1 292/23/1 291/24/1
f 302/21/1 303/22/1 293/23/1 292/24/1
f 303/21/1 304/22/1 294/23/1 293/24/1
f 304/13/1 305/14/1 295/15/1 294/16/1
f 305/13/1 306/14/1 296/15/1 295/16/1
f 306/5/1 112/6/1 106/7/1 296/8/1
f 117/5/1 307/6/1 297/7/1 111/8/1
f 307/9/1 308/10/1 298/11/1 297/12/1
f 308/29/1 309/30/1 299/31/1 298/32/1
f 309/21/1 310/22/1 300/23/1 299/24/1
f 310/21/1 311/22/1 301/23/1 300/24/1
f 311/17/1 312/18/1 302/19/1 301/20/1
f 312/17/1 313/18/1 303/19/1 302/20/1
f 313/17/1 314/18/1 304/19/1 303/20/1
f 314/17/1 315/18/1 305/19/1 304/20/1
f 315/13/1 316/14/1 306/15/1 305/16/1
f 316/5/1 118/6/1 112/7/1 306/8/1
f 123/5/1 317/6/1 307/7/1 117/8/1
f 317/25/1 318/26/1 308/27/1 307/28/1
f 318/25/1 319/26/1 309/27/1 308/28/1
f 319/29/1 320/30/1 310/31/1 309/32/1
f 320/21/1 321/22/1 311/23/1 310/24/1
f 321/21/1 322/22/1 312/23/1 311/24/1
f 322/21/1 323/22/1 313/23/1 312/24/1
f 323/21/1 324/22/1 314/23/1 313/24/1
f 324/21/1 325/22/1 315/23/1 314/24/1
f 325/17/1 326/18/1 316/19/1 315/20/1
f 326/5/1 124/6/1 118/7/1 316/8/1
f 129/5/1 327/6/1 317/7/1 123/8/1
f 327/29/1 328/30/1 318/31/1 317/32/1
f 328/29/1 329/30/1 319/31/1 318/32/1
f 329/29/1 330/30/1 320/31/1 319/32/1
f 330/29/1 331/30/1 321/31/1 320/32/1
f 331/29/1 332/30/1 322/31/1 321/32/1
f 332/29/1 333/30/1 323/31/1 322/32/1
f 333/29/1 334/30/1 324/31/1 323/32/1
f 334/21/1 335/22/1 325/23/1 324/24/1
f 335/21/1 336/22/1 326/23/1 325/24/1
f 336/5/1 130/6/1 124/7/1 326/8/1
f 135/5/1 143/6/1 327/7/1 129/8/1
f 143/5/1 145/6/1 328/7/1 327/8/1
f 145/5/1 147/6/1 329/7/1 328/8/1
f 147/5/1 149/6/1 330/7/1 329/8/1
f 149/5/1 151/6/1 331/7/1 330/8/1
f 151/5/1 153/6/1 332/7/1 331/8/1
f 153/5/1 155/6/1 333/7/1 332/8/1
f 155/5/1 157/6/1 334/7/1 333/8/1
f 157/5/1 159/6/1 335/7/1 334/8/1
f 159/5/1 161/6/1 336/7/1 335/8/1
f 161/5/1 136/6/1 130/7/1 336/8/1

g mesh_0003
f 5/33/1 7/34/1 8/35/1 6/36/1
f 9/33/1 11/34/1 12/35/1 10/36/1
f 13/33/1 15/34/1 16/35/1 14/36/1
f 17/33/1 19/34/1 20/35/1 18/36/1
f 21/33/1 23/34/1 24/35/1 22/36/1
f 25/33/1 27/34/1 28/35/1 26/36/1
f 35/37/1 36/38/1 7/39/1 5/40/1
f 36/41/1 37/42/1 9/43/1 7/44/1
f 37/37/1 38/38/1 11/39/1 9/40/1
f 38/41/1 39/42/1 13/43/1 11/44/1
f 39/37/1 40/38/1 15/39/1 13/40/1
f 41/37/1 42/38/1 19/39/1 17/40/1
f 42/41/1 43/42/1 21/43/1 19/44/1
f 43/37/1 44/38/1 23/39/1 21/40/1
f 44/41/1 45/42/1 25/43/1 23/44/1
f 45/37/1 46/38/1 27/39/1 25/40/1
f 197/45/1 198/46/1 37/47/1 36/48/1
f 199/45/1 200/46/1 39/47/1 38/48/1
f 203/45/1 204/46/1 43/47/1 42/48/1
f 205/45/1 206/46/1 45/47/1 44/48/1
f 207/49/1 208/50/1 198/51/1 197/52/1
f 209/49/1 210/50/1 200/51/1 199/52/1
f 213/49/1 214/50/1 204/51/1 203/52/1
f 215/49/1 216/50/1 206/51/1 205/52/1
f 241/53/1 242/54/1 232/55/1 231/56/1
f 251/57/1 252/58/1 242/59/1 241/60/1
f 257/61/1 258/62/1 248/63/1 247/64/1
f 261/65/1 262/66/1 252/67/1 251/68/1
f 265/61/1 266/62/1 256/63/1 255/64/1
f 281/53/1 282/54/1 272/55/1 271/56/1
f 327/61/1 328/62/1 318/63/1 317/64/1
f 335/61/1 336/62/1 326/63/1 325/64/1

g mesh_0004
f 200/69/1 201/70/1 40/71/1 39/72/1
f 201/73/1 202/74/1 41/75/1 40/76/1
f 202/57/1 203/58/1 42/59/1 41/60/1
f 210/77/1 211/78/1 201/79/1 200/80/1
f 211/81/1 212/82/1 202/83/1 201/84/1
f 212/65/1 213/66/1 203/67/1 202/68/1
f 330/67/1 331/68/1 321/65/1 320/66/1
f 331/83/1 332/84/1 322/81/1 321/82/1
f 332/79/1 333/80/1 323/77/1 322/78/1
f 149/59/1 151/60/1 331/57/1 330/58/1
f 151/75/1 153/76/1 332/73/1 331/74/1
f 153/71/1 155/72/1 333/69/1 332/70/1

g mesh_0005
f 251/57/1 252/58/1 242/59/1 241/60/1

g mesh_0006
f 51/85/1 197/86/1 36/87/1 35/88/1
f 197/86/1 198/87/1 37/88/1 36/85/1
f 198/86/1 199/87/1 38/88/1 37/85/1
f 199/86/1 200/87/1 39/88/1 38/85/1
f 200/85/1 201/86/1 40/87/1 39/88/1
f 201/86/1 202/87/1 41/88/1 40/85/1
f 202/85/1 203/86/1 42/87/1 41/88/1
f 203/86/1 204/87/1 43/88/1 42/85/1
f 204/86/1 205/87/1 44/88/1 43/85/1
f 205/86/1 206/87/1 45/88/1 44/85/1
f 206/87/1 52/88/1 46/85/1 45/86/1
f 57/85/1 207/86/1 197/87/1 51/88/1
f 210/85/1 211/86/1 201/87/1 200/88/1
f 212/85/1 213/86/1 203/87/1 202/88/1
f 216/87/1 58/88/1 52/85/1 206/86/1
f 63/85/1 217/86/1 207/87/1 57/88/1
f 226/87/1 64/88/1 58/85/1 216/86/1
f 69/85/1 227/86/1 217/87/1 63/88/1
f 236/87/1 70/88/1 64/85/1 226/86/1
f 75/85/1 237/86/1 227/87/1 69/88/1
f 246/87/1 76/88/1 70/85/1 236/86/1
f 81/85/1 247/86/1 237/87/1 75/88/1
f 256/87/1 82/88/1 76/85/1 246/86/1
f 87/88/1 257/85/1 247/86/1 81/87/1
f 257/88/1 258/85/1 248/86/1 247/87/1
f 261/86/1 262/87/1 252/88/1 251/85/1
f 265/86/1 266/87/1 256/88/1 255/85/1
f 266/86/1 88/87/1 82/88/1 256/85/1
f 93/85/1 267/86/1 257/87/1 87/88/1
f 276/87/1 94/88/1 88/85/1 266/86/1
f 99/85/1 277/86/1 267/87/1 93/88/1
f 286/87/1 100/88/1 94/85/1 276/86/1
f 105/85/1 287/86/1 277/87/1 99/88/1
f 296/87/1 106/88/1 100/85/1 286/86/1
f 111/85/1 297/86/1 287/87/1 105/88/1
f 306/87/1 112/88/1 106/85/1 296/86/1
f 117/85/1 307/86/1 297/87/1 111/88/1
f 316/87/1 118/88/1 112/85/1 306/86/1
f 123/85/1 317/86/1 307/87/1 117/88/1
f 326/87/1 124/88/1 118/85/1 316/86/1
f 129/85/1 327/86/1 317/87/1 123/88/1
f 327/85/1 328/86/1 318/87/1 317/88/1
f 330/85/1 331/86/1 321/87/1 320/88/1
f 332/85/1 333/86/1 323/87/1 322/88/1
f 335/85/1 336/86/1 326/87/1 325/88/1
f 336/85/1 130/86/1 124/87/1 326/88/1
f 135/85/1 143/86/1 327/87/1 129/88/1
f 143/85/1 145/86/1 328/87/1 327/88/1
f 145/88/1 147/85/1 329/86/1 328/87/1
f 147/88/1 149/85/1 330/86/1 329/87/1
f 149/85/1 151/86/1 331/87/1 330/88/1
f 151/88/1 153/85/1 332/86/1 331/87/1
f 153/85/1 155/86/1 333/87/1 332/88/1
f 155/88/1 157/85/1 334/86/1 333/87/1
f 157/88/1 159/85/1 335/86/1 334/87/1
f 159/85/1 161/86/1 336/87/1 335/88/1
f 161/85/1 136/86/1 130/87/1 336/88/1

